<svg width="87" height="32" viewBox="0 0 87 32" fill="none" xmlns="http://www.w3.org/2000/svg">
<path d="M82.2949 0C84.5041 0 86.2949 1.79086 86.2949 4V28C86.2949 30.2091 84.5041 32 82.2949 32H4C1.79086 32 0 30.2091 0 28V4C0 1.79086 1.79086 1.84474e-08 4 0H82.2949ZM9.31934 8.80371C8.59175 8.80371 7.88942 8.89259 7.21289 9.07129C6.54913 9.24999 5.95597 9.52534 5.43262 9.89551C4.92202 10.2657 4.51339 10.7506 4.20703 11.3506C3.90078 11.9376 3.74713 12.6394 3.74707 13.4561C3.74707 14.4645 4.07942 15.2943 4.74316 15.9453C5.40693 16.5835 6.37686 17.0047 7.65332 17.209L10.4873 17.6689C10.9976 17.7583 11.3805 17.8985 11.6357 18.0898C11.891 18.2685 12.0185 18.5305 12.0186 18.875C12.0186 19.1686 11.9297 19.4178 11.751 19.6221C11.5723 19.8263 11.3491 19.9925 11.0811 20.1201C10.8258 20.235 10.5513 20.3181 10.2578 20.3691C9.96434 20.4202 9.70236 20.4453 9.47266 20.4453C8.65579 20.4453 7.9408 20.2984 7.32812 20.0049C6.72823 19.6986 6.12821 19.2773 5.52832 18.7412L2.92383 20.4258C3.85568 21.447 4.81976 22.1686 5.81543 22.5898C6.82381 22.9983 7.90877 23.2021 9.07031 23.2021C9.70855 23.2021 10.3916 23.1384 11.1191 23.0107C11.8465 22.8959 12.5231 22.6668 13.1484 22.3223C13.7739 21.9649 14.2907 21.4663 14.6992 20.8281C15.1077 20.1899 15.3125 19.3601 15.3125 18.3389C15.3125 17.688 15.1782 17.1391 14.9102 16.6924C14.6549 16.2456 14.2974 15.8756 13.8379 15.582C13.3911 15.2884 12.8675 15.0585 12.2676 14.8926C11.6678 14.7139 11.0298 14.567 10.3535 14.4521L9.05078 14.2412C8.39996 14.1391 7.92154 13.9922 7.61523 13.8008C7.3089 13.5965 7.15527 13.3096 7.15527 12.9395C7.15528 12.7226 7.21916 12.5311 7.34668 12.3652C7.47424 12.1866 7.6339 12.0397 7.8252 11.9248C8.01667 11.8099 8.22824 11.7201 8.45801 11.6562C8.68757 11.5925 8.89852 11.5605 9.08984 11.5605C9.81729 11.5606 10.4938 11.7142 11.1191 12.0205C11.7573 12.3141 12.3003 12.7353 12.7471 13.2842L15.3311 11.4268C14.5653 10.5717 13.653 9.92036 12.5938 9.47363C11.5471 9.02688 10.4554 8.80373 9.31934 8.80371ZM23.6523 8.80273C22.5929 8.80273 21.6481 9.00078 20.8184 9.39648C20.0015 9.77939 19.3126 10.3031 18.751 10.9668C18.1893 11.6306 17.7614 12.3966 17.4678 13.2646C17.1742 14.1326 17.0273 15.0456 17.0273 16.0029C17.0274 16.96 17.1801 17.8725 17.4863 18.7402C17.8055 19.6083 18.2595 20.3743 18.8467 21.0381C19.4339 21.7018 20.1545 22.2322 21.0098 22.6279C21.8649 23.0108 22.8351 23.2021 23.9199 23.2021C25.0815 23.2021 26.1413 22.8891 27.0986 22.2637C28.056 21.6382 28.8288 20.7891 29.416 19.7168L26.7158 18.415C26.5754 18.7213 26.3966 18.9958 26.1797 19.2383C25.9627 19.468 25.7202 19.6661 25.4521 19.832C25.1968 19.998 24.9351 20.1255 24.667 20.2148C24.3989 20.2914 24.1497 20.3301 23.9199 20.3301C23.2436 20.33 22.682 20.2025 22.2354 19.9473C21.7886 19.6792 21.4311 19.3343 21.1631 18.9131C20.8951 18.4919 20.7038 18.0261 20.5889 17.5156C20.4868 17.0051 20.4356 16.5007 20.4355 16.0029C20.4355 15.237 20.5186 14.5792 20.6846 14.0303C20.8633 13.4815 21.1058 13.035 21.4121 12.6904C21.7185 12.3458 22.0759 12.0898 22.4844 11.9238C22.8928 11.7579 23.3334 11.6748 23.8057 11.6748C24.4055 11.6748 24.967 11.8604 25.4902 12.2305C26.0135 12.5878 26.3971 13.0855 26.6396 13.7236L29.3584 12.3643C29.0393 11.8027 28.6876 11.3051 28.3047 10.8711C27.9218 10.4244 27.4947 10.0475 27.0225 9.74121C26.5629 9.43485 26.0519 9.20494 25.4902 9.05176C24.9287 8.88587 24.316 8.80274 23.6523 8.80273ZM31.4092 22.8193H34.8174V17.917H36.9814L39.6621 22.8193H43.4727L40.3516 17.3428C41.2066 17.0875 41.8899 16.6343 42.4004 15.9834C42.9108 15.3198 43.1659 14.5475 43.166 13.667C43.166 12.1352 42.7255 11.005 41.8447 10.2773C40.9639 9.54977 39.7574 9.18652 38.2256 9.18652H31.4092V22.8193ZM45.5342 22.8193H56.1416V20.1768H48.9424V16.96H55.127V14.3174H48.9424V11.8281H55.5674V9.18652H45.5342V22.8193ZM58.2559 22.8193H68.8643V20.1768H61.665V16.96H67.8496V14.3174H61.665V11.8281H68.29V9.18652H58.2559V22.8193ZM70.9785 22.8193H74.0801V14.2412H74.1191L79.1162 22.8193H82.5244V9.18652H79.4229V17.8984H79.3848L74.4248 9.18652H70.9785V22.8193ZM37.9385 11.7139C38.4874 11.7139 38.9279 11.8607 39.2598 12.1543C39.5915 12.4479 39.7578 12.9136 39.7578 13.5518C39.7578 14.1899 39.5916 14.6556 39.2598 14.9492C38.9279 15.2428 38.4874 15.3896 37.9385 15.3896H34.8174V11.7139H37.9385Z" fill="#B1B3B4"/>
</svg>
