<svg width="38" height="15" viewBox="0 0 38 15" fill="none" xmlns="http://www.w3.org/2000/svg">
<path d="M28.1685 9.93758C28.7685 10.4737 29.3684 10.895 29.9684 11.2013C30.5811 11.4949 31.2959 11.6417 32.1129 11.6417C32.3427 11.6417 32.6044 11.6162 32.898 11.5651C33.1916 11.5141 33.466 11.4311 33.7213 11.3162C33.9894 11.1885 34.2128 11.0226 34.3915 10.8184C34.5702 10.6141 34.6595 10.3652 34.6595 10.0716C34.6595 9.72695 34.5319 9.46527 34.2766 9.28656C34.0213 9.09508 33.6383 8.95467 33.1277 8.86531L30.2939 8.40577C29.0174 8.20153 28.0473 7.78029 27.3835 7.14203C26.7197 6.49102 26.3878 5.66129 26.3878 4.65285C26.3878 3.83589 26.541 3.13381 26.8473 2.54662C27.1537 1.94667 27.5622 1.4616 28.0728 1.09141C28.5961 0.721224 29.1897 0.446776 29.8535 0.268066C30.53 0.0893556 31.2321 0 31.9597 0C33.0958 0 34.1872 0.223388 35.234 0.670165C36.2935 1.11694 37.2062 1.76796 37.9721 2.62321L35.3871 4.48053C34.9404 3.93163 34.3979 3.51038 33.7596 3.21679C33.1341 2.91043 32.4576 2.75725 31.73 2.75725C31.5385 2.75725 31.3279 2.78916 31.0981 2.85298C30.8683 2.91681 30.6577 3.00617 30.4662 3.12105C30.2747 3.23594 30.1152 3.38273 29.9875 3.56144C29.8599 3.72739 29.7961 3.91886 29.7961 4.13587C29.7961 4.50606 29.9492 4.79327 30.2556 4.99751C30.562 5.18898 31.0406 5.33578 31.6917 5.4379L32.9937 5.64853C33.6702 5.76341 34.3085 5.91021 34.9085 6.08892C35.5084 6.25486 36.0318 6.48463 36.4785 6.77823C36.9381 7.07183 37.2955 7.44201 37.5508 7.88879C37.8189 8.33556 37.9529 8.88446 37.9529 9.53548C37.9529 10.5567 37.7487 11.3864 37.3402 12.0247C36.9317 12.6629 36.4147 13.1607 35.7892 13.5182C35.1638 13.8628 34.4872 14.0926 33.7596 14.2075C33.032 14.3351 32.3491 14.399 31.7108 14.399C30.5492 14.399 29.4642 14.1947 28.4557 13.7862C27.4601 13.365 26.4963 12.6438 25.5645 11.6226L28.1685 9.93758Z" fill="#B1B3B4"/>
<path d="M12.7227 0.383057H19.5392C21.071 0.383057 22.2773 0.74686 23.1581 1.47447C24.0389 2.20207 24.4792 3.33178 24.4792 4.86358C24.4792 5.74437 24.2239 6.51665 23.7133 7.18043C23.2027 7.83145 22.5198 8.28461 21.6646 8.53991L24.7856 14.0161H20.9752L18.2946 9.11434H16.1309V14.0161H12.7227V0.383057ZM16.1309 6.58686H19.252C19.8009 6.58686 20.2413 6.44006 20.5731 6.14647C20.905 5.85287 21.071 5.38695 21.071 4.7487C21.071 4.11044 20.905 3.64452 20.5731 3.35092C20.2413 3.05733 19.8009 2.91053 19.252 2.91053H16.1309V6.58686Z" fill="#B1B3B4"/>
<path d="M0 14.0161V0.383057H10.0333V3.02542H3.40826V5.5146H9.59292V8.15696H3.40826V11.3737H10.6077V14.0161H0Z" fill="#B1B3B4"/>
</svg>
