<?xml version="1.0" encoding="UTF-8"?>
<svg xmlns="http://www.w3.org/2000/svg" xmlns:xlink="http://www.w3.org/1999/xlink" version="1.1" viewBox="0 0 307.2 60.7">
  <g class="logo-svg">
    <g id="Layer_0_xA0_Image">
      <g>
        <path d="M227.2,1.1c2.7.9,4.3,2.4,4.6,5.4v48.1c-.3,3-2.6,5.1-5.6,5.2H79.6c-3,0-5.5-2.4-5.6-5.4V6.2c.3-2.7,2-4.1,4.3-5.1h148.9ZM127.2,24c.5-.6-1.8-3.2-2.4-3.7-5.6-5.1-14.5-3.4-18.1,3.2-6,11,4.3,25,16.3,18.2,1-.5,4.9-3.9,4.2-5s-4-1.8-4.6-2.2c-5.1,7.5-11.9,2.3-11.1-5.6s7.7-9,10.9-2.8c.6-.3,4.7-2,4.9-2.2ZM102,22.6c.1-.2,0-.5,0-.7s-2.3-1.8-2.7-2.1c-6.4-4.1-19-2.8-17.7,6.9s7.1,5.6,11.5,6.5,3.9,4.5,0,5-5.8-.7-8.3-2.8c-.6.4-4.3,2.4-4.5,2.6-.4.7,2.6,3,3.3,3.4,5.8,3.3,17.8,2.6,18.9-5.6s-7.2-7.6-12.4-8.8-2.4-.6-2.3-2.1c.2-3.4,5.7-2.3,7.8-1.2s1.9,1.7,2.1,1.7c.3,0,4.3-2.7,4.4-2.9ZM152.4,42.7l-5.3-9.7c.7-.6,1.5-.8,2.3-1.3,3.8-2.8,3.2-9.6-.6-12s-3.5-1.6-4.7-1.6h-13.3v24.6h6.2v-8.6h3.7c1.9,2.7,3.2,5.9,5,8.6h6.6ZM174.7,18h-17.9s-.4.3-.4.4v23.9s.3.4.4.4h19.1v-5h-13.2v-5.5h11.3v-5h-11v-4.1h11.8v-5ZM198.7,18h-18.2v24.6h19.4v-5h-13.2v-5.5h11.3v-5h-11.3v-4.1h12v-5ZM210.3,18h-5.9v24.6h6l-.2-14.8c.4,0,.4.5.6.7,2.5,4.2,4.7,8.7,7.4,12.7s.6,1,1,1.4h5.9v-24.6h-6v15.1c-2.7-5.1-5.5-10.2-8.8-15.1Z"/>
        <path d="M.1,18h18.1c.2,0,.8.2.8.4v4.7h-6.5v19.4h-6v-19.4H.1v-5Z"/>
        <path d="M282.4,42.4h-6.7c-.6-1-4.2-8.6-4.7-8.6h-3.7v8.6h-6.2v-24.1h14.5c2.3,0,5.3,2.6,6,4.8,1.4,4.4,0,8.2-4.4,9.9l5.3,9.4ZM267.3,22.8v6.3s.3.4.4.4h5c.4,0,2.2-.8,2.5-1.1,1.1-1.1,1.1-3.9,0-4.9s-1.1-.7-1.2-.7h-6.6Z"/>
        <path d="M28.9,18.3v8.6h8.9v-8.6h6v24.1h-6v-9.9s-.3-.4-.4-.4h-8.5v10.3h-6.2v-24.1h6.2Z"/>
        <path d="M306.6,22.6c-.1.2-3.7,2.3-4.2,2.9-1.7-1.6-4-3.1-6.4-3.1s-5.2,3.2-2.3,4.5,5.3.8,7.3,1.3c4.1,1,6.8,2.9,6.1,7.6-1.1,7.9-12.3,8.7-18,5.9s-4.5-3-4-3.8c1.6-.3,3.4-2.9,5-2.2s.5.6.7.8c1.4.9,3.5,1.8,5.2,1.9,4.5.3,7.8-3.9,2.1-5.2s-10.5-.4-11.6-5.8c-2-9.7,10.4-11.7,17.1-7.7s2.8,2,3,2.2.2.5,0,.7Z"/>
        <path d="M255,18.3v4.8h-12v4.3h11.3v4.5h-11.3v5.6s.3.4.4.4h12.8v4.5h-19.2v-24.1h18Z"/>
        <path d="M67.7,18.3v4.4s-.3.4-.4.4h-11.6v4.3h11.3v4.5h-11.3v5.6s.3.4.4.4h12.6v4.5h-18.9v-24.1h18Z"/>
        <path d="M143.2,22.8c3,.4,3.4,4.6,1.2,5.9s-1.1.5-1.2.5h-6.1v-6.5c1.9.2,4.3-.3,6.1,0Z"/>
      </g>
    </g>
  </g>
</svg>
